# xmcd
#
# Track frame offsets:
#	150
#	20535
#	41075
#	61452
#	81932
#	102317
#	122677
#	143165
#	163562
#	183930
#	204325
#	224700
#	245092
#	265487
#	285872
#	306265
#
# Disc length: 4352 seconds
#
# Revision: 5
# Processed by: cddbd v1.5.1PL2 Copyright (c) Steve Scherf et al.
# Submitted via: audiograbber 1.83.01
#
DISCID=ee10fe10
DTITLE=Various Artist - Découverte Nature Atmosphères
DYEAR=2003
DGENRE=New Age
TTITLE0=Philippe Bestion - Obscure clarté
TTITLE1=Nicolas Jeandot - L'éveil des fleurs
TTITLE2=Vincent Baguerre - Brume
TTITLE3=Dominique Verdan - Aurore printanière
TTITLE4=Jérôme Hameau - Bouquet du jour
TTITLE5=Karin Nobbs - Moments de soleil
TTITLE6=Michel Goubin - Le soir des moissons
TTITLE7=Yogitea - Ecume et vagues à l'âme
TTITLE8=Vincent Bruley - Le chant des brises
TTITLE9=Dominique Verdan - Le peuple des fourmis
TTITLE10=Vincent Bruley - Secondes d'envol
TTITLE11=Yvan Illians - Nature et lumière
TTITLE12=Laurent Dury - Le chant des berges
TTITLE13=Thierry Noritop - Atmosphère magique
TTITLE14=Georges Bodossian - Les heures pourpres
TTITLE15=Dominique Langham - Au coeur de la nuit
EXTD=
EXTT0=
EXTT1=
EXTT2=
EXTT3=
EXTT4=
EXTT5=
EXTT6=
EXTT7=
EXTT8=
EXTT9=
EXTT10=
EXTT11=
EXTT12=
EXTT13=
EXTT14=
EXTT15=
PLAYORDER=
